# Aspose.3D Wavefront OBJ Exporter
# Copyright 2004-2022 Aspose Pty Ltd.
# File created: 12/26/2022 06:29:01


#
# object obj_31331961
#

v 100.07244110107421875 1.57244443893432616 0.01941142790019512
v 0 1.57500004768371584 0
v 0 1.56495189666748048 0.03750000149011612
v 100.06494903564453125 1.56495189666748048 0.03750000149011612
v 0 1.53750002384185792 0.06495190411806107
v 100.03749847412109375 1.53750002384185792 0.06495190411806107
v 0 1.5 0.07500000298023224
v 100 1.5 0.07500000298023224
v 0 1.46249997615814208 0.06495190411806107
v 99.96250152587890624 1.46249997615814208 0.06495190411806107
v 0 1.43504810333251952 0.03750000149011612
v 99.9350509643554688 1.43504810333251952 0.03750000149011612
v 99.9350509643554688 1.43504810333251952 -0.03750000149011612
v 99.92755889892578128 1.42755556106567384 -0.01941142790019512
v 0 1.42499995231628416 0
v 99.92500305175781248 1.42499995231628416 0
v 99.92755889892578128 1.42755556106567384 0.01941142790019512
v 0 1.56495189666748048 -0.03750000149011612
v 100.03749847412109375 1.53750002384185792 -0.06495190411806107
v 0 1.53750002384185792 -0.06495190411806107
v 100 1.5 -0.07500000298023224
v 0 1.5 -0.07500000298023224
v 99.96250152587890624 1.46249997615814208 -0.06495190411806107
v 0 1.46249997615814208 -0.06495190411806107
v 0 1.43504810333251952 -0.03750000149011612
v 100.0749969482421875 1.57500004768371584 0
v 100.07244110107421875 1.57244443893432616 -0.01941142790019512
v 100.06494903564453125 1.56495189666748048 -0.03750000149011612
v 0 1.5 0
v 3.472685057204217E-05 -1.46249997615814208 0.06495190411806107
v 6.014866812620312E-05 -1.43504810333251952 0.03750000149011612
v 0 -1.5 0
v 6.945370114408433E-05 -1.42500007152557376 0
v 6.014866812620312E-05 -1.43504810333251952 -0.03750000149011612
v -6.014866812620312E-05 -1.56495189666748048 0.03750000149011612
v -3.472685057204217E-05 -1.53750002384185792 0.06495190411806107
v 0 -1.5 0.07500000298023224
v -3.472685057204217E-05 -1.53750002384185792 -0.06495190411806107
v -6.014866812620312E-05 -1.56495189666748048 -0.03750000149011612
v -6.945370114408433E-05 -1.57499992847442624 0
v 3.472685057204217E-05 -1.46249997615814208 -0.06495190411806107
v 0 -1.5 -0.07500000298023224
v 100.07244110107421875 -1.665116548538208 -0.01941142790019512
v 100.06494903564453125 -1.65761709213256832 -0.03750000149011612
v 100.03749847412109375 -1.63013970851898192 -0.06495190411806107
v -2.842170943040401E-14 -1.5 -0.07500000298023224
v 100 -1.59260499477386472 -0.07500000298023224
v 99.96250152587890624 -1.55507028102874752 -0.06495190411806107
v 99.9350509643554688 -1.52759289741516112 -0.03750000149011612
v 99.9350509643554688 -1.52759289741516112 0.03750000149011612
v 99.92755889892578128 -1.52009344100952152 0.01941142790019512
v 99.92500305175781248 -1.5175354480743408 0
v 99.92755889892578128 -1.52009344100952152 -0.01941142790019512
v 100.03749847412109375 -1.63013970851898192 0.06495190411806107
v 100 -1.59260499477386472 0.07500000298023224
v -2.842170943040401E-14 -1.5 0.07500000298023224
v 99.96250152587890624 -1.55507028102874752 0.06495190411806107
v 100.0749969482421875 -1.66767442226409912 0
v 100.07244110107421875 -1.665116548538208 0.01941142790019512
v 100.06494903564453125 -1.65761709213256832 0.03750000149011612
# 60 vertices

vn -2.5536957764416002E-05 0.96592545509338384 0.25882038474082948
vn 0 0.92387938499450688 0.38268384337425232
vn 0 0.70710718631744384 0.70710641145706176
vn 0 0.25881898403167724 0.96592581272125248
vn 0 -0.25881898403167724 0.96592581272125248
vn 0 -0.70710718631744384 0.70710641145706176
vn -5.0714068493107334E-05 -0.92387193441390992 -0.38270178437232968
vn 0 -0.99144458770751952 -0.13052849471569062
vn 0 -0.96592545509338384 0.25882038474082948
vn -5.070914266980253E-05 -0.99144369363784784 0.1305350512266159
vn 0 -0.92387938499450688 0.38268384337425232
vn 0 0.70710718631744384 -0.70710641145706176
vn 0 0.25881898403167724 -0.96592581272125248
vn 0 -0.25881898403167724 -0.96592581272125248
vn 0 -0.70710718631744384 -0.70710641145706176
vn 0 -0.96592545509338384 -0.25882038474082948
vn 0 0.99144458770751952 0.13052849471569062
vn 0 0.99144458770751952 -0.13052849471569062
vn -2.5536957764416002E-05 0.96592545509338384 -0.25882038474082948
vn 0 0.92387938499450688 -0.38268384337425232
vn -1 0 0
vn -0.99999958276748656 0.00092604936799034 -5.969232330649277E-10
vn -0.99999958276748656 0.00092604983365163 -1.355587309070927E-09
vn -0.99999958276748656 0.00092604983365163 1.355587309070927E-09
vn -0.99999958276748656 0.00092604936799034 5.969232330649277E-10
vn -0.99999958276748656 0.0009260483784601 -3.249799531746603E-19
vn -0.99999958276748656 0.0009260483784601 3.2498010827102514E-19
vn -0.00092003273312002 -0.96592575311660768 -0.2588176131248474
vn -0.00085555849364027 -0.92387944459915168 -0.3826826810836792
vn -0.00065481610363349 -0.70710670948028568 -0.70710653066635128
vn -0.00065481488127261 -0.7071058750152588 -0.70710742473602296
vn -0.00023967893503140658 -0.25881877541542052 -0.96592587232589728
vn -0.00023967951710801572 -0.25881922245025636 -0.96592575311660768
vn 0.00023967910965438932 0.25881877541542052 -0.96592587232589728
vn 0.00023967969173099846 0.25881922245025636 -0.96592575311660768
vn 0.00065481662750244 0.70710670948028568 -0.70710653066635128
vn 0.0006548153469339 0.7071058750152588 -0.70710742473602296
vn 0.0008048370364122 0.92387205362319952 0.38270062208175656
vn 0.00091812567552551 0.99144405126571648 0.13052929937839508
vn 0.00089449452934786 0.96592581272125248 -0.2588176131248474
vn 0.00086741719860583 0.99144321680068976 -0.13053587079048156
vn 0.00085555855184793 0.92387944459915168 -0.3826826810836792
vn -0.0006548156379722 -0.70710670948028568 0.70710653066635128
vn -0.00023967934248503298 -0.25881922245025636 0.96592575311660768
vn -0.00023967910965438932 -0.25881877541542052 0.96592587232589728
vn 0.00023967951710801572 0.25881922245025636 0.96592575311660768
vn 0.00023967928427737206 0.25881877541542052 0.96592587232589728
vn 0.00065481581259518 0.7071058750152588 0.70710742473602296
vn 0.00065481616184115 0.70710670948028568 0.70710653066635128
vn 0.0008944955188781 0.96592581272125248 0.2588176131248474
vn -0.00091812724713236 -0.99144482612609856 -0.13052332401275634
vn -0.00091812724713236 -0.99144482612609856 0.13052332401275634
vn -0.00092003273312002 -0.96592575311660768 0.2588176131248474
vn -0.00085555849364027 -0.92387944459915168 0.3826826810836792
vn -0.0006548153469339 -0.7071058750152588 0.70710742473602296
vn 0.99144297838211056 0 0.13054046034812928
vn 0.92388796806335456 0 0.38266307115554808
vn 0.70712405443191528 0 0.70708948373794552
vn 0.25882896780967712 0 0.9659231901168824
vn -0.25882896780967712 0 0.9659231901168824
vn -0.70712405443191528 0 0.70708948373794552
vn -0.92388796806335456 0 0.38266307115554808
vn -0.99144297838211056 0 0.13054046034812928
vn -0.99144297838211056 0 -0.13054046034812928
vn -0.92388796806335456 0 -0.38266307115554808
vn -0.70712405443191528 0 -0.70708948373794552
vn -0.25882896780967712 0 -0.9659231901168824
vn 0.25882896780967712 0 -0.9659231901168824
vn 0.70712405443191528 0 -0.70708948373794552
vn 0.92388796806335456 0 -0.38266307115554808
vn 0.99144297838211056 0 -0.13054046034812928
# 71 vertex normals

g obj_31331961
s 1
f 1//1 2//1 3//1
f 1//2 3//2 4//2
f 4//3 3//3 5//3
f 4//3 5//3 6//3
f 6//4 5//4 7//4
f 6//4 7//4 8//4
f 8//5 7//5 9//5
f 8//5 9//5 10//5
f 10//6 9//6 11//6
f 10//6 11//6 12//6
f 13//7 14//7 15//7
f 15//8 14//8 16//8
f 15//9 16//9 11//9
f 11//10 16//10 17//10
f 11//11 17//11 12//11
f 18//12 19//12 20//12
f 20//13 19//13 21//13
f 20//13 21//13 22//13
f 22//14 21//14 23//14
f 22//14 23//14 24//14
f 24//15 23//15 13//15
f 24//15 13//15 25//15
f 25//16 13//16 15//16
f 1//17 26//17 2//17
f 2//18 26//18 27//18
f 2//19 27//19 18//19
f 18//20 27//20 28//20
f 18//12 28//12 19//12
f 5//21 3//21 29//21
f 29//21 3//21 2//21
f 29//21 2//21 18//21
f 11//21 9//21 29//21
f 29//21 9//21 7//21
f 29//21 7//21 5//21
f 24//21 25//21 29//21
f 29//21 25//21 15//21
f 29//21 15//21 11//21
f 18//21 20//21 29//21
f 29//21 20//21 22//21
f 29//21 22//21 24//21
f 30//22 31//22 32//22
f 32//23 31//23 33//23
f 32//24 33//24 34//24
f 35//25 36//25 32//25
f 32//26 36//26 37//26
f 32//26 37//26 30//26
f 38//22 39//22 32//22
f 32//23 39//23 40//23
f 32//24 40//24 35//24
f 34//25 41//25 32//25
f 32//27 41//27 42//27
f 32//27 42//27 38//27
f 43//28 40//28 39//28
f 43//29 39//29 44//29
f 44//30 39//30 38//30
f 44//31 38//31 45//31
f 45//32 38//32 46//32
f 45//33 46//33 47//33
f 47//34 46//34 41//34
f 47//35 41//35 48//35
f 48//36 41//36 34//36
f 48//37 34//37 49//37
f 50//38 51//38 33//38
f 33//39 51//39 52//39
f 33//40 52//40 34//40
f 34//41 52//41 53//41
f 34//42 53//42 49//42
f 35//43 54//43 36//43
f 36//44 54//44 55//44
f 36//45 55//45 56//45
f 56//46 55//46 57//46
f 56//47 57//47 30//47
f 30//48 57//48 50//48
f 30//49 50//49 31//49
f 31//50 50//50 33//50
f 43//51 58//51 40//51
f 40//52 58//52 59//52
f 40//53 59//53 35//53
f 35//54 59//54 60//54
f 35//55 60//55 54//55
f 58//56 1//56 59//56
f 59//57 1//57 4//57
f 59//57 4//57 60//57
f 60//58 4//58 6//58
f 60//58 6//58 54//58
f 54//59 6//59 8//59
f 54//59 8//59 55//59
f 55//60 8//60 10//60
f 55//60 10//60 57//60
f 57//61 10//61 12//61
f 57//61 12//61 50//61
f 50//62 12//62 51//62
f 51//62 12//62 17//62
f 51//63 17//63 52//63
f 52//63 17//63 16//63
f 52//64 16//64 53//64
f 16//64 14//64 53//64
f 53//65 14//65 13//65
f 53//65 13//65 49//65
f 49//66 13//66 23//66
f 49//66 23//66 48//66
f 48//67 23//67 21//67
f 48//67 21//67 47//67
f 47//68 21//68 19//68
f 47//68 19//68 45//68
f 45//69 19//69 28//69
f 45//69 28//69 44//69
f 44//70 28//70 43//70
f 43//70 28//70 27//70
f 43//71 27//71 58//71
f 58//71 27//71 26//71
f 58//56 26//56 1//56
#112 polygons

